<svg xmlns="http://www.w3.org/2000/svg" width="88" height="26" fill="#fff" xmlns:v="https://vecta.io/nano"><path d="M4.68 20.583c-2.097 0-3.145-1.158-3.145-3.472V7.624H0V5.838h1.535V1.585h2.692v4.253h2.34v1.787h-2.34v9.31c0 .587.092.998.277 1.233s.537.352 1.057.352c.336 0 .663-.025.981-.075v1.988a12.62 12.62 0 0 1-1.862.151zM8.621 0h2.692v7.348c1.208-1.141 2.424-1.711 3.649-1.711.788 0 1.342.285 1.661.856.335.57.503 1.275.503 2.114v11.776h-2.692V9.386c0-.554-.084-.965-.252-1.233s-.47-.403-.906-.403c-.587 0-1.241.319-1.963.956v11.676H8.621V0zm15.156 20.583c-1.124 0-1.996-.21-2.617-.629-.621-.436-1.057-1.074-1.308-1.912s-.378-1.929-.378-3.271v-3.322c0-2.013.31-3.481.931-4.403.637-.939 1.761-1.409 3.372-1.409 1.174 0 2.055.243 2.642.73.604.486.998 1.174 1.183 2.063.201.872.302 2.055.302 3.548v1.183h-5.737v2.919c0 .889.126 1.535.377 1.938.268.386.688.579 1.258.579s.956-.193 1.158-.579c.201-.403.302-1.006.302-1.812v-.881h2.617v.554c0 1.526-.327 2.692-.981 3.498s-1.694 1.208-3.12 1.208zm1.485-8.883v-1.308c0-.99-.101-1.694-.302-2.114-.184-.436-.587-.654-1.208-.654-.436 0-.772.101-1.006.302-.218.201-.369.537-.453 1.007-.084.453-.126 1.116-.126 1.988v.78h3.095zm4.954.076h5.611v2.038h-5.611v-2.038zm11.985 13.11c-1.409 0-2.533-.226-3.372-.679-.839-.436-1.258-1.124-1.258-2.063 0-.637.193-1.191.579-1.661.403-.47.906-.847 1.51-1.132-.453-.134-.805-.344-1.057-.629-.235-.285-.352-.596-.352-.931 0-.503.126-.939.377-1.308s.663-.814 1.233-1.334a4.08 4.08 0 0 1-1.283-1.636c-.268-.671-.403-1.568-.403-2.692 0-1.694.344-2.978 1.032-3.85.704-.889 1.728-1.334 3.07-1.334.772 0 1.401.134 1.887.403a2.59 2.59 0 0 1 1.107 1.208c.117-.185.361-.428.73-.73a5.65 5.65 0 0 1 1.233-.78l.403-.176.679 1.736c-.335.067-.805.21-1.409.428-.587.218-.939.386-1.057.503.117.302.218.721.302 1.258a7.77 7.77 0 0 1 .151 1.409c0 1.594-.31 2.835-.931 3.724-.621.872-1.652 1.308-3.095 1.308-.453 0-.914-.059-1.384-.176-.319.47-.478.839-.478 1.107 0 .185.092.336.277.453.201.101.512.168.931.201l2.265.201c1.141.101 1.988.444 2.541 1.032s.83 1.426.83 2.516c0 2.416-1.686 3.623-5.058 3.623zm.076-10.845c.721 0 1.191-.252 1.409-.755s.327-1.325.327-2.466c0-1.158-.109-1.996-.327-2.516-.218-.537-.679-.805-1.384-.805s-1.183.268-1.434.805c-.235.52-.352 1.359-.352 2.516 0 1.04.117 1.837.352 2.39.252.554.721.83 1.409.83zm.126 8.732c.956 0 1.661-.117 2.114-.352.453-.218.679-.579.679-1.082 0-.47-.143-.814-.428-1.032-.285-.235-.805-.386-1.56-.453l-2.29-.201c-.352.352-.621.663-.805.931a1.52 1.52 0 0 0-.277.881c0 .453.185.78.554.981.386.218 1.057.327 2.013.327zm7.034-16.935h2.692v2.063c.503-.822 1.015-1.401 1.535-1.736.537-.335 1.099-.503 1.686-.503a3.45 3.45 0 0 1 .428.025v2.969c-.537-.201-1.032-.302-1.485-.302a2.2 2.2 0 0 0-1.183.327c-.335.201-.663.562-.981 1.082v10.619h-2.692V5.838zm12.01 14.745c-1.543 0-2.642-.453-3.296-1.359-.638-.923-.956-2.256-.956-4.001v-4.227c0-1.745.319-3.07.956-3.976.654-.923 1.753-1.384 3.296-1.384 1.527 0 2.609.461 3.246 1.384.654.906.981 2.231.981 3.976v4.227c0 1.745-.327 3.078-.981 4.001-.637.906-1.719 1.359-3.246 1.359zm0-1.988c.486 0 .839-.143 1.057-.428s.352-.637.403-1.057.075-.99.075-1.711v-4.554l-.075-1.711c-.05-.436-.184-.797-.403-1.082s-.57-.428-1.057-.428-.847.143-1.082.428c-.218.285-.352.646-.403 1.082-.05.419-.076.99-.076 1.711V15.4l.076 1.711c.05.419.184.772.403 1.057.235.285.596.428 1.082.428zm8.777 1.988c-.788 0-1.35-.285-1.686-.856s-.503-1.275-.503-2.114V5.838h2.692v10.971c0 .554.084.973.252 1.258.168.268.47.403.906.403.537 0 1.166-.302 1.887-.906V5.838h2.693v14.544h-2.693v-1.434c-1.157 1.09-2.34 1.636-3.548 1.636zm8.994-14.745h2.692v1.157c.788-.906 1.711-1.359 2.768-1.359 1.325 0 2.206.57 2.642 1.711.453 1.124.679 2.374.679 3.749v3.523c0 1.778-.277 3.221-.83 4.328-.537 1.09-1.468 1.636-2.793 1.636-.855 0-1.677-.428-2.466-1.283v5.863h-2.692V5.838zm4.63 12.632c.621 0 1.015-.31 1.183-.931.184-.637.277-1.61.277-2.919v-3.523c0-1.074-.101-1.896-.302-2.466-.201-.587-.621-.881-1.258-.881-.621 0-1.233.252-1.837.755v9.31c.587.436 1.233.654 1.938.654z"/></svg>